<mxfile host="app.diagrams.net" agent="Mozilla/5.0 (Macintosh; Intel Mac OS X 10_15_7) AppleWebKit/537.36 (KHTML, like Gecko) Chrome/136.0.0.0 Safari/537.36" version="27.0.5">
  <diagram name="Page-1" id="s0SaZUWN_Na3JWhbd0Fv">
    <mxGraphModel dx="1381" dy="803" grid="1" gridSize="10" guides="1" tooltips="1" connect="1" arrows="1" fold="1" page="1" pageScale="1" pageWidth="850" pageHeight="1100" math="0" shadow="0">
      <root>
        <mxCell id="0" />
        <mxCell id="1" parent="0" />
        <mxCell id="c4XE9IQLmvjRBMzZLf2d-1" value="" style="rhombus;whiteSpace=wrap;html=1;fillColor=#FFFFCC;strokeColor=#FFCC99;" vertex="1" parent="1">
          <mxGeometry x="120" y="304" width="100" height="40" as="geometry" />
        </mxCell>
        <mxCell id="c4XE9IQLmvjRBMzZLf2d-2" value="" style="strokeWidth=2;html=1;shape=mxgraph.flowchart.annotation_2;align=left;labelPosition=right;pointerEvents=1;rotation=90;" vertex="1" parent="1">
          <mxGeometry x="305" y="250" width="50" height="100" as="geometry" />
        </mxCell>
        <mxCell id="c4XE9IQLmvjRBMzZLf2d-3" value="" style="rounded=0;whiteSpace=wrap;html=1;fillColor=#CCE5FF;strokeColor=#66B2FF;" vertex="1" parent="1">
          <mxGeometry x="335" y="320" width="100" height="40" as="geometry" />
        </mxCell>
        <mxCell id="c4XE9IQLmvjRBMzZLf2d-4" value="COMPONENTE" style="rounded=0;whiteSpace=wrap;html=1;fillColor=#CCE5FF;strokeColor=#66B2FF;" vertex="1" parent="1">
          <mxGeometry x="530" y="330" width="100" height="40" as="geometry" />
        </mxCell>
        <mxCell id="c4XE9IQLmvjRBMzZLf2d-5" value="" style="group" vertex="1" connectable="0" parent="1">
          <mxGeometry x="175" y="410" width="180" height="100" as="geometry" />
        </mxCell>
        <mxCell id="c4XE9IQLmvjRBMzZLf2d-6" value="INDIRIZZO" style="ellipse;whiteSpace=wrap;html=1;fillColor=default;" vertex="1" parent="c4XE9IQLmvjRBMzZLf2d-5">
          <mxGeometry x="80" y="30" width="100" height="40" as="geometry" />
        </mxCell>
        <mxCell id="c4XE9IQLmvjRBMzZLf2d-7" value="" style="ellipse;whiteSpace=wrap;html=1;aspect=fixed;fillColor=light-dark(#000000,transparent);strokeColor=default;direction=south;" vertex="1" parent="c4XE9IQLmvjRBMzZLf2d-5">
          <mxGeometry x="45" y="45" width="10" height="10" as="geometry" />
        </mxCell>
        <mxCell id="c4XE9IQLmvjRBMzZLf2d-8" value="" style="endArrow=none;html=1;rounded=0;entryX=0;entryY=0.5;entryDx=0;entryDy=0;exitX=0.5;exitY=0;exitDx=0;exitDy=0;" edge="1" parent="c4XE9IQLmvjRBMzZLf2d-5" source="c4XE9IQLmvjRBMzZLf2d-7" target="c4XE9IQLmvjRBMzZLf2d-6">
          <mxGeometry width="50" height="50" relative="1" as="geometry">
            <mxPoint x="155" y="21" as="sourcePoint" />
            <mxPoint x="85" y="41" as="targetPoint" />
          </mxGeometry>
        </mxCell>
        <mxCell id="c4XE9IQLmvjRBMzZLf2d-9" value="" style="endArrow=none;html=1;rounded=0;entryX=0;entryY=0;entryDx=0;entryDy=0;exitX=1;exitY=0;exitDx=0;exitDy=0;" edge="1" parent="c4XE9IQLmvjRBMzZLf2d-5" source="c4XE9IQLmvjRBMzZLf2d-10" target="c4XE9IQLmvjRBMzZLf2d-6">
          <mxGeometry width="50" height="50" relative="1" as="geometry">
            <mxPoint x="125" y="10" as="sourcePoint" />
            <mxPoint x="125" y="30" as="targetPoint" />
          </mxGeometry>
        </mxCell>
        <mxCell id="c4XE9IQLmvjRBMzZLf2d-10" value="" style="ellipse;whiteSpace=wrap;html=1;aspect=fixed;fillColor=light-dark(#000000,transparent);strokeColor=default;direction=south;" vertex="1" parent="c4XE9IQLmvjRBMzZLf2d-5">
          <mxGeometry x="60" y="10" width="10" height="10" as="geometry" />
        </mxCell>
        <mxCell id="c4XE9IQLmvjRBMzZLf2d-11" value="" style="ellipse;whiteSpace=wrap;html=1;aspect=fixed;fillColor=light-dark(#000000,transparent);strokeColor=default;direction=south;" vertex="1" parent="c4XE9IQLmvjRBMzZLf2d-5">
          <mxGeometry x="60" y="80" width="10" height="10" as="geometry" />
        </mxCell>
        <mxCell id="c4XE9IQLmvjRBMzZLf2d-12" value="" style="endArrow=none;html=1;rounded=0;entryX=0;entryY=1;entryDx=0;entryDy=0;exitX=0;exitY=0;exitDx=0;exitDy=0;" edge="1" parent="c4XE9IQLmvjRBMzZLf2d-5" source="c4XE9IQLmvjRBMzZLf2d-11" target="c4XE9IQLmvjRBMzZLf2d-6">
          <mxGeometry width="50" height="50" relative="1" as="geometry">
            <mxPoint x="165" y="31" as="sourcePoint" />
            <mxPoint x="95" y="51" as="targetPoint" />
            <Array as="points" />
          </mxGeometry>
        </mxCell>
        <mxCell id="c4XE9IQLmvjRBMzZLf2d-13" value="Via" style="text;html=1;align=center;verticalAlign=middle;resizable=0;points=[];autosize=1;strokeColor=none;fillColor=none;" vertex="1" parent="c4XE9IQLmvjRBMzZLf2d-5">
          <mxGeometry x="5" y="35" width="40" height="30" as="geometry" />
        </mxCell>
        <mxCell id="c4XE9IQLmvjRBMzZLf2d-14" value="CAP" style="text;html=1;align=center;verticalAlign=middle;resizable=0;points=[];autosize=1;strokeColor=none;fillColor=none;" vertex="1" parent="c4XE9IQLmvjRBMzZLf2d-5">
          <mxGeometry x="10" width="50" height="30" as="geometry" />
        </mxCell>
        <mxCell id="c4XE9IQLmvjRBMzZLf2d-15" value="Civico" style="text;html=1;align=center;verticalAlign=middle;resizable=0;points=[];autosize=1;strokeColor=none;fillColor=none;" vertex="1" parent="c4XE9IQLmvjRBMzZLf2d-5">
          <mxGeometry y="70" width="60" height="30" as="geometry" />
        </mxCell>
        <mxCell id="c4XE9IQLmvjRBMzZLf2d-16" value="PRODUCE" style="rhombus;whiteSpace=wrap;html=1;fillColor=#FFFFCC;strokeColor=#FFCC99;" vertex="1" parent="1">
          <mxGeometry x="600" y="470" width="100" height="40" as="geometry" />
        </mxCell>
        <mxCell id="c4XE9IQLmvjRBMzZLf2d-17" value="INSTALLA" style="rhombus;whiteSpace=wrap;html=1;fillColor=#FFFFCC;strokeColor=#FFCC99;" vertex="1" parent="1">
          <mxGeometry x="540" y="420" width="100" height="40" as="geometry" />
        </mxCell>
        <mxCell id="c4XE9IQLmvjRBMzZLf2d-18" value="" style="group" vertex="1" connectable="0" parent="1">
          <mxGeometry x="225" y="289" width="10" height="31" as="geometry" />
        </mxCell>
        <mxCell id="c4XE9IQLmvjRBMzZLf2d-19" value="" style="ellipse;whiteSpace=wrap;html=1;aspect=fixed;fillColor=light-dark(#000000,#FFFFFF);strokeColor=default;" vertex="1" parent="c4XE9IQLmvjRBMzZLf2d-18">
          <mxGeometry width="10" height="10" as="geometry" />
        </mxCell>
        <mxCell id="c4XE9IQLmvjRBMzZLf2d-20" value="" style="endArrow=none;html=1;rounded=0;entryX=0.5;entryY=1;entryDx=0;entryDy=0;" edge="1" parent="c4XE9IQLmvjRBMzZLf2d-18" target="c4XE9IQLmvjRBMzZLf2d-19">
          <mxGeometry width="50" height="50" relative="1" as="geometry">
            <mxPoint x="5" y="31" as="sourcePoint" />
            <mxPoint x="75" y="11" as="targetPoint" />
          </mxGeometry>
        </mxCell>
        <mxCell id="c4XE9IQLmvjRBMzZLf2d-21" value="" style="group" vertex="1" connectable="0" parent="1">
          <mxGeometry x="250" y="289" width="10" height="31" as="geometry" />
        </mxCell>
        <mxCell id="c4XE9IQLmvjRBMzZLf2d-22" value="" style="ellipse;whiteSpace=wrap;html=1;aspect=fixed;fillColor=#FFFFFF;strokeColor=default;" vertex="1" parent="c4XE9IQLmvjRBMzZLf2d-21">
          <mxGeometry width="10" height="10" as="geometry" />
        </mxCell>
        <mxCell id="c4XE9IQLmvjRBMzZLf2d-23" value="" style="endArrow=none;html=1;rounded=0;entryX=0.5;entryY=1;entryDx=0;entryDy=0;" edge="1" parent="c4XE9IQLmvjRBMzZLf2d-21" target="c4XE9IQLmvjRBMzZLf2d-22">
          <mxGeometry width="50" height="50" relative="1" as="geometry">
            <mxPoint x="5" y="31" as="sourcePoint" />
            <mxPoint x="75" y="11" as="targetPoint" />
          </mxGeometry>
        </mxCell>
        <mxCell id="c4XE9IQLmvjRBMzZLf2d-24" value="" style="group" vertex="1" connectable="0" parent="1">
          <mxGeometry x="300" y="560" width="180" height="100" as="geometry" />
        </mxCell>
        <mxCell id="c4XE9IQLmvjRBMzZLf2d-25" value="CONTATTI" style="ellipse;whiteSpace=wrap;html=1;fillColor=default;" vertex="1" parent="c4XE9IQLmvjRBMzZLf2d-24">
          <mxGeometry x="80" y="30" width="100" height="40" as="geometry" />
        </mxCell>
        <mxCell id="c4XE9IQLmvjRBMzZLf2d-26" value="" style="endArrow=none;html=1;rounded=0;entryX=0;entryY=0;entryDx=0;entryDy=0;exitX=1;exitY=0;exitDx=0;exitDy=0;" edge="1" parent="c4XE9IQLmvjRBMzZLf2d-24" source="c4XE9IQLmvjRBMzZLf2d-27" target="c4XE9IQLmvjRBMzZLf2d-25">
          <mxGeometry width="50" height="50" relative="1" as="geometry">
            <mxPoint x="125" y="10" as="sourcePoint" />
            <mxPoint x="125" y="30" as="targetPoint" />
          </mxGeometry>
        </mxCell>
        <mxCell id="c4XE9IQLmvjRBMzZLf2d-27" value="" style="ellipse;whiteSpace=wrap;html=1;aspect=fixed;fillColor=light-dark(#000000,transparent);strokeColor=default;direction=south;" vertex="1" parent="c4XE9IQLmvjRBMzZLf2d-24">
          <mxGeometry x="60" y="10" width="10" height="10" as="geometry" />
        </mxCell>
        <mxCell id="c4XE9IQLmvjRBMzZLf2d-28" value="" style="ellipse;whiteSpace=wrap;html=1;aspect=fixed;fillColor=light-dark(#000000,transparent);strokeColor=default;direction=south;" vertex="1" parent="c4XE9IQLmvjRBMzZLf2d-24">
          <mxGeometry x="60" y="80" width="10" height="10" as="geometry" />
        </mxCell>
        <mxCell id="c4XE9IQLmvjRBMzZLf2d-29" value="" style="endArrow=none;html=1;rounded=0;entryX=0;entryY=1;entryDx=0;entryDy=0;exitX=0;exitY=0;exitDx=0;exitDy=0;" edge="1" parent="c4XE9IQLmvjRBMzZLf2d-24" source="c4XE9IQLmvjRBMzZLf2d-28" target="c4XE9IQLmvjRBMzZLf2d-25">
          <mxGeometry width="50" height="50" relative="1" as="geometry">
            <mxPoint x="165" y="31" as="sourcePoint" />
            <mxPoint x="95" y="51" as="targetPoint" />
            <Array as="points" />
          </mxGeometry>
        </mxCell>
        <mxCell id="c4XE9IQLmvjRBMzZLf2d-30" value="Email" style="text;html=1;align=center;verticalAlign=middle;resizable=0;points=[];autosize=1;strokeColor=none;fillColor=none;" vertex="1" parent="c4XE9IQLmvjRBMzZLf2d-24">
          <mxGeometry x="10" width="50" height="30" as="geometry" />
        </mxCell>
        <mxCell id="c4XE9IQLmvjRBMzZLf2d-31" value="Telefono" style="text;html=1;align=center;verticalAlign=middle;resizable=0;points=[];autosize=1;strokeColor=none;fillColor=none;" vertex="1" parent="c4XE9IQLmvjRBMzZLf2d-24">
          <mxGeometry x="-5" y="70" width="70" height="30" as="geometry" />
        </mxCell>
        <mxCell id="c4XE9IQLmvjRBMzZLf2d-32" value="" style="group" vertex="1" connectable="0" parent="1">
          <mxGeometry x="240" y="330" width="10" height="41" as="geometry" />
        </mxCell>
        <mxCell id="c4XE9IQLmvjRBMzZLf2d-33" value="" style="group;rotation=0;" vertex="1" connectable="0" parent="c4XE9IQLmvjRBMzZLf2d-32">
          <mxGeometry y="10" width="10" height="31" as="geometry" />
        </mxCell>
        <mxCell id="c4XE9IQLmvjRBMzZLf2d-34" value="" style="endArrow=none;html=1;rounded=0;entryX=0.5;entryY=1;entryDx=0;entryDy=0;" edge="1" parent="c4XE9IQLmvjRBMzZLf2d-33" target="c4XE9IQLmvjRBMzZLf2d-36">
          <mxGeometry width="50" height="50" relative="1" as="geometry">
            <mxPoint x="5" y="20" as="sourcePoint" />
            <mxPoint x="76" y="11" as="targetPoint" />
          </mxGeometry>
        </mxCell>
        <mxCell id="c4XE9IQLmvjRBMzZLf2d-35" value="" style="endArrow=none;html=1;rounded=0;" edge="1" parent="c4XE9IQLmvjRBMzZLf2d-33">
          <mxGeometry width="50" height="50" relative="1" as="geometry">
            <mxPoint x="10" y="5" as="sourcePoint" />
            <mxPoint y="5" as="targetPoint" />
          </mxGeometry>
        </mxCell>
        <mxCell id="c4XE9IQLmvjRBMzZLf2d-36" value="" style="ellipse;whiteSpace=wrap;html=1;aspect=fixed;fillColor=#FFFFFF;strokeColor=default;rotation=0;" vertex="1" parent="c4XE9IQLmvjRBMzZLf2d-32">
          <mxGeometry width="10" height="10" as="geometry" />
        </mxCell>
      </root>
    </mxGraphModel>
  </diagram>
</mxfile>
